# xmcd
#
# Track frame offsets:
#	150
#	9630
#	20333
#	34141
#	44838
#	54853
#	67270
#	81936
#	91765
#	103837
#	116608
#	129234
#	141870
#	155018
#	166453
#	182102
#	194427
#	207338
#	221410
#	234015
#	246739
#	258394
#	270709
#	283776
#	297839
#	308912
#	321924
#
# Disc length: 4415 seconds
#
# Revision: 4
# Processed by: cddbd v1.5.1PL2 Copyright (c) Steve Scherf et al.
# Submitted via: EasyCDDAExtractor 9.0.0.1
#
DISCID=99113d1b
DTITLE=Merle Haggard - Down Every Road Cd 2
DYEAR=1996
DGENRE=Country
TTITLE0=The Legend Of Bonnie And Clyde
TTITLE1=I Started Loving You Again
TTITLE2=Is This The Beginning Of The End
TTITLE3=I'll Always Know
TTITLE4=Mama Tried
TTITLE5=In The Good Old Days (When Times Were Bad)
TTITLE6=Teach Me To Forget
TTITLE7=I'm Looking For My Mind
TTITLE8=The Day The Rains Came
TTITLE9=California Blues (Blue Yodel #4)
TTITLE10=I Take A Lot Of Pride In What I Am
TTITLE11=I'm Bringin' Home Good News
TTITLE12=I Can't Hold Myself In Line
TTITLE13=It Meant Goodbye To Me When You Said Hello To Him
TTITLE14=Hungry Eyes
TTITLE15=Silver Wings
TTITLE16=Waitin' For A Train
TTITLE17=Jimmie Rodger's Last Blue Yodel (The Women Make A Fool Out Of Me)
TTITLE18=California Cottonfields
TTITLE19=White Line Fever
TTITLE20=Workin' Man Blues
TTITLE21=Okie From Muskogee
TTITLE22=I Can't Stop Loving You
TTITLE23=Huntsville
TTITLE24=Irma Jackson
TTITLE25=The Fightin' Side Of Me
TTITLE26=I'll Be A Hero (When I Strike)
EXTD=YEAR: 1996
EXTT0=
EXTT1=
EXTT2=
EXTT3=
EXTT4=
EXTT5=
EXTT6=
EXTT7=
EXTT8=
EXTT9=
EXTT10=
EXTT11=
EXTT12=
EXTT13=
EXTT14=
EXTT15=
EXTT16=
EXTT17=
EXTT18=
EXTT19=
EXTT20=
EXTT21=
EXTT22=
EXTT23=
EXTT24=
EXTT25=
EXTT26=
PLAYORDER=
